<mxfile host="app.diagrams.net" agent="Mozilla/5.0 (X11; Linux x86_64) AppleWebKit/537.36 (KHTML, like Gecko) Chrome/127.0.0.0 Safari/537.36 Edg/127.0.0.0" version="24.7.6">
  <diagram name="Page-1" id="DDoSltAEAGNu_Ia7-UyK">
    <mxGraphModel dx="664" dy="447" grid="1" gridSize="10" guides="1" tooltips="1" connect="1" arrows="1" fold="1" page="1" pageScale="1" pageWidth="850" pageHeight="1100" math="0" shadow="0">
      <root>
        <mxCell id="0" />
        <mxCell id="1" style="locked=1;" parent="0" />
        <mxCell id="mychlJcc826s-JKeVesS-8" style="edgeStyle=orthogonalEdgeStyle;rounded=0;orthogonalLoop=1;jettySize=auto;html=1;exitX=1;exitY=0.5;exitDx=0;exitDy=0;entryX=0.5;entryY=0;entryDx=0;entryDy=0;" parent="1" source="mychlJcc826s-JKeVesS-1" target="mychlJcc826s-JKeVesS-6" edge="1">
          <mxGeometry relative="1" as="geometry" />
        </mxCell>
        <mxCell id="mychlJcc826s-JKeVesS-52" style="edgeStyle=orthogonalEdgeStyle;rounded=0;orthogonalLoop=1;jettySize=auto;html=1;" parent="1" source="mychlJcc826s-JKeVesS-1" target="mychlJcc826s-JKeVesS-44" edge="1">
          <mxGeometry relative="1" as="geometry">
            <Array as="points">
              <mxPoint x="540" y="80" />
            </Array>
          </mxGeometry>
        </mxCell>
        <mxCell id="mychlJcc826s-JKeVesS-1" value="kare-giver/&lt;br&gt;kare-admin/&lt;br&gt;etc" style="ellipse;whiteSpace=wrap;html=1;" parent="1" vertex="1">
          <mxGeometry x="40" y="40" width="120" height="80" as="geometry" />
        </mxCell>
        <mxCell id="mychlJcc826s-JKeVesS-6" value="Space 1&lt;br&gt;(kare-recipient 1&lt;span style=&quot;background-color: initial;&quot;&gt;)&lt;/span&gt;" style="rounded=1;whiteSpace=wrap;html=1;arcSize=0;fillColor=#f5f5f5;fontColor=#333333;strokeColor=#666666;movableLabel=1;movable=1;" parent="1" vertex="1">
          <mxGeometry x="180" y="100" width="120" height="280" as="geometry">
            <mxPoint x="1" y="-119" as="offset" />
          </mxGeometry>
        </mxCell>
        <mxCell id="mychlJcc826s-JKeVesS-11" value="Main&amp;nbsp;&lt;span style=&quot;background-color: initial;&quot;&gt;Broadcast Group Chat&lt;/span&gt;" style="rounded=1;whiteSpace=wrap;html=1;fillColor=#dae8fc;strokeColor=#6c8ebf;" parent="1" vertex="1">
          <mxGeometry x="190" y="150" width="100" height="40" as="geometry" />
        </mxCell>
        <mxCell id="mychlJcc826s-JKeVesS-17" value="" style="ellipse;whiteSpace=wrap;html=1;aspect=fixed;" parent="1" vertex="1">
          <mxGeometry x="190" y="200" width="30" height="30" as="geometry" />
        </mxCell>
        <mxCell id="mychlJcc826s-JKeVesS-18" value="&lt;p style=&quot;line-height: 100%;&quot;&gt;&lt;font style=&quot;font-size: 10px;&quot;&gt;one-to-one chat&lt;/font&gt;&lt;/p&gt;" style="text;strokeColor=none;align=center;fillColor=none;html=1;verticalAlign=middle;whiteSpace=wrap;rounded=0;shadow=0;glass=0;dashed=1;" parent="1" vertex="1">
          <mxGeometry x="220" y="200" width="60" height="30" as="geometry" />
        </mxCell>
        <mxCell id="mychlJcc826s-JKeVesS-23" value="" style="ellipse;whiteSpace=wrap;html=1;aspect=fixed;" parent="1" vertex="1">
          <mxGeometry x="190" y="240" width="30" height="30" as="geometry" />
        </mxCell>
        <mxCell id="mychlJcc826s-JKeVesS-24" value="&lt;p style=&quot;line-height: 100%;&quot;&gt;&lt;font style=&quot;font-size: 10px;&quot;&gt;one-to-one chat&lt;/font&gt;&lt;/p&gt;" style="text;strokeColor=none;align=center;fillColor=none;html=1;verticalAlign=middle;whiteSpace=wrap;rounded=0;shadow=0;glass=0;dashed=1;" parent="1" vertex="1">
          <mxGeometry x="220" y="240" width="60" height="30" as="geometry" />
        </mxCell>
        <mxCell id="mychlJcc826s-JKeVesS-25" value="" style="ellipse;whiteSpace=wrap;html=1;aspect=fixed;" parent="1" vertex="1">
          <mxGeometry x="190" y="280" width="30" height="30" as="geometry" />
        </mxCell>
        <mxCell id="mychlJcc826s-JKeVesS-26" value="&lt;p style=&quot;line-height: 100%;&quot;&gt;&lt;font style=&quot;font-size: 10px;&quot;&gt;one-to-one chat&lt;/font&gt;&lt;/p&gt;" style="text;strokeColor=none;align=center;fillColor=none;html=1;verticalAlign=middle;whiteSpace=wrap;rounded=0;shadow=0;glass=0;dashed=1;" parent="1" vertex="1">
          <mxGeometry x="220" y="280" width="60" height="30" as="geometry" />
        </mxCell>
        <mxCell id="mychlJcc826s-JKeVesS-35" style="edgeStyle=orthogonalEdgeStyle;rounded=0;orthogonalLoop=1;jettySize=auto;html=1;entryX=0.5;entryY=0;entryDx=0;entryDy=0;" parent="1" source="mychlJcc826s-JKeVesS-1" target="mychlJcc826s-JKeVesS-36" edge="1">
          <mxGeometry relative="1" as="geometry">
            <mxPoint x="290" y="80" as="sourcePoint" />
          </mxGeometry>
        </mxCell>
        <mxCell id="mychlJcc826s-JKeVesS-36" value="Space 2&lt;br&gt;(kare-recipient 2&lt;span style=&quot;background-color: initial;&quot;&gt;)&lt;/span&gt;" style="rounded=1;whiteSpace=wrap;html=1;arcSize=0;fillColor=#f5f5f5;fontColor=#333333;strokeColor=#666666;movableLabel=1;movable=1;" parent="1" vertex="1">
          <mxGeometry x="330" y="100" width="120" height="280" as="geometry">
            <mxPoint x="1" y="-119" as="offset" />
          </mxGeometry>
        </mxCell>
        <mxCell id="mychlJcc826s-JKeVesS-37" value="Main&amp;nbsp;&lt;span style=&quot;background-color: initial;&quot;&gt;Broadcast Group Chat&lt;/span&gt;" style="rounded=1;whiteSpace=wrap;html=1;fillColor=#dae8fc;strokeColor=#6c8ebf;" parent="1" vertex="1">
          <mxGeometry x="340" y="150" width="100" height="40" as="geometry" />
        </mxCell>
        <mxCell id="mychlJcc826s-JKeVesS-38" value="" style="ellipse;whiteSpace=wrap;html=1;aspect=fixed;" parent="1" vertex="1">
          <mxGeometry x="340" y="200" width="30" height="30" as="geometry" />
        </mxCell>
        <mxCell id="mychlJcc826s-JKeVesS-39" value="&lt;p style=&quot;line-height: 100%;&quot;&gt;&lt;font style=&quot;font-size: 10px;&quot;&gt;one-to-one chat&lt;/font&gt;&lt;/p&gt;" style="text;strokeColor=none;align=center;fillColor=none;html=1;verticalAlign=middle;whiteSpace=wrap;rounded=0;shadow=0;glass=0;dashed=1;" parent="1" vertex="1">
          <mxGeometry x="370" y="200" width="60" height="30" as="geometry" />
        </mxCell>
        <mxCell id="mychlJcc826s-JKeVesS-40" value="" style="ellipse;whiteSpace=wrap;html=1;aspect=fixed;" parent="1" vertex="1">
          <mxGeometry x="340" y="240" width="30" height="30" as="geometry" />
        </mxCell>
        <mxCell id="mychlJcc826s-JKeVesS-41" value="&lt;p style=&quot;line-height: 100%;&quot;&gt;&lt;font style=&quot;font-size: 10px;&quot;&gt;one-to-one chat&lt;/font&gt;&lt;/p&gt;" style="text;strokeColor=none;align=center;fillColor=none;html=1;verticalAlign=middle;whiteSpace=wrap;rounded=0;shadow=0;glass=0;dashed=1;" parent="1" vertex="1">
          <mxGeometry x="370" y="240" width="60" height="30" as="geometry" />
        </mxCell>
        <mxCell id="mychlJcc826s-JKeVesS-42" value="" style="ellipse;whiteSpace=wrap;html=1;aspect=fixed;" parent="1" vertex="1">
          <mxGeometry x="340" y="280" width="30" height="30" as="geometry" />
        </mxCell>
        <mxCell id="mychlJcc826s-JKeVesS-43" value="&lt;p style=&quot;line-height: 100%;&quot;&gt;&lt;font style=&quot;font-size: 10px;&quot;&gt;one-to-one chat&lt;/font&gt;&lt;/p&gt;" style="text;strokeColor=none;align=center;fillColor=none;html=1;verticalAlign=middle;whiteSpace=wrap;rounded=0;shadow=0;glass=0;dashed=1;" parent="1" vertex="1">
          <mxGeometry x="370" y="280" width="60" height="30" as="geometry" />
        </mxCell>
        <mxCell id="mychlJcc826s-JKeVesS-44" value="Space 3&lt;br&gt;(kare-recipient 3&lt;span style=&quot;background-color: initial;&quot;&gt;)&lt;/span&gt;" style="rounded=1;whiteSpace=wrap;html=1;arcSize=0;fillColor=#f5f5f5;fontColor=#333333;strokeColor=#666666;movableLabel=1;movable=1;" parent="1" vertex="1">
          <mxGeometry x="480" y="100" width="120" height="280" as="geometry">
            <mxPoint x="1" y="-119" as="offset" />
          </mxGeometry>
        </mxCell>
        <mxCell id="mychlJcc826s-JKeVesS-45" value="Main&amp;nbsp;&lt;span style=&quot;background-color: initial;&quot;&gt;Broadcast Group Chat&lt;/span&gt;" style="rounded=1;whiteSpace=wrap;html=1;fillColor=#dae8fc;strokeColor=#6c8ebf;" parent="1" vertex="1">
          <mxGeometry x="490" y="150" width="100" height="40" as="geometry" />
        </mxCell>
        <mxCell id="mychlJcc826s-JKeVesS-46" value="" style="ellipse;whiteSpace=wrap;html=1;aspect=fixed;" parent="1" vertex="1">
          <mxGeometry x="490" y="200" width="30" height="30" as="geometry" />
        </mxCell>
        <mxCell id="mychlJcc826s-JKeVesS-47" value="&lt;p style=&quot;line-height: 100%;&quot;&gt;&lt;font style=&quot;font-size: 10px;&quot;&gt;one-to-one chat&lt;/font&gt;&lt;/p&gt;" style="text;strokeColor=none;align=center;fillColor=none;html=1;verticalAlign=middle;whiteSpace=wrap;rounded=0;shadow=0;glass=0;dashed=1;" parent="1" vertex="1">
          <mxGeometry x="520" y="200" width="60" height="30" as="geometry" />
        </mxCell>
        <mxCell id="mychlJcc826s-JKeVesS-48" value="" style="ellipse;whiteSpace=wrap;html=1;aspect=fixed;" parent="1" vertex="1">
          <mxGeometry x="490" y="240" width="30" height="30" as="geometry" />
        </mxCell>
        <mxCell id="mychlJcc826s-JKeVesS-49" value="&lt;p style=&quot;line-height: 100%;&quot;&gt;&lt;font style=&quot;font-size: 10px;&quot;&gt;one-to-one chat&lt;/font&gt;&lt;/p&gt;" style="text;strokeColor=none;align=center;fillColor=none;html=1;verticalAlign=middle;whiteSpace=wrap;rounded=0;shadow=0;glass=0;dashed=1;" parent="1" vertex="1">
          <mxGeometry x="520" y="240" width="60" height="30" as="geometry" />
        </mxCell>
        <mxCell id="mychlJcc826s-JKeVesS-50" value="" style="ellipse;whiteSpace=wrap;html=1;aspect=fixed;" parent="1" vertex="1">
          <mxGeometry x="490" y="280" width="30" height="30" as="geometry" />
        </mxCell>
        <mxCell id="mychlJcc826s-JKeVesS-51" value="&lt;p style=&quot;line-height: 100%;&quot;&gt;&lt;font style=&quot;font-size: 10px;&quot;&gt;one-to-one chat&lt;/font&gt;&lt;/p&gt;" style="text;strokeColor=none;align=center;fillColor=none;html=1;verticalAlign=middle;whiteSpace=wrap;rounded=0;shadow=0;glass=0;dashed=1;" parent="1" vertex="1">
          <mxGeometry x="520" y="280" width="60" height="30" as="geometry" />
        </mxCell>
      </root>
    </mxGraphModel>
  </diagram>
</mxfile>
